<svg id="SvgjsSvg1011" width="288" height="288" xmlns="http://www.w3.org/2000/svg" version="1.1" xmlns:xlink="http://www.w3.org/1999/xlink" xmlns:svgjs="http://svgjs.com/svgjs"><defs id="SvgjsDefs1012"></defs><g id="SvgjsG1013"><svg xmlns="http://www.w3.org/2000/svg" data-name="Layer 1" viewBox="0 0 512 512" width="288" height="288"><path d="M478.86945,457.52332a1.5009,1.5009,0,0,0,0,3A1.5009,1.5009,0,0,0,478.86945,457.52332ZM271.30078,230.083a60.001,60.001,0,0,0-15.395-3.43946l-.01953-.00146a7.50031,7.50031,0,0,0-5.63037,13.09229c.23877.439.604,1.167,1.16211,2.37207.13721.29687.24658.53076.31738.67529a29.37014,29.37014,0,0,1,2.91113,14.86426,25.43518,25.43518,0,0,1-1.50683,6.98291q-.20361-.572-.42041-1.14551a104.55423,104.55423,0,0,0-6.34033-13.22217A75.36674,75.36674,0,0,0,232.731,232.58838a7.49994,7.49994,0,0,0-12.56885,6.9126c1.92187,9.19482,1.55176,17.69873-1.1001,25.27588-2.46582,7.04541-6.11426,11.08056-10.33838,15.75293-4.43164,4.90136-9.45459,10.457-12.97558,19.61816-.34229.89062-8.29053,22.05176.16943,42.76025,5.88916,14.41748,18.11914,26.22266,33.5542,32.38819a63.36281,63.36281,0,0,0,22.12421,4.52368,31.21633,31.21633,0,0,0,5.06182.42358,28.07445,28.07445,0,0,0,6.34766-.7124,26.70537,26.70537,0,0,0,4.72241-1.56689,54.58937,54.58937,0,0,0,8.575-3.01856h.00049c23.52393-10.58887,41.03272-35.37939,43.56787-61.6875C323.27783,277.916,301.94287,241.38086,271.30078,230.083ZM272.666,343.3125c-.317,4.68024-2.77155,16.402-10.14667,20.47931a43.61733,43.61733,0,0,1-9.45075,1.06738,20.73817,20.73817,0,0,1-7.87231-3.68927c-3.43848-2.57324-5.75879-5.93554-5.91065-8.56543-.07666-1.32763.38477-5.03271,6.31055-10.75244a23.78068,23.78068,0,0,1,6.80127-4.54053c2.93555-1.46093,6.58838-3.27929,9.60791-7.61474a22.115,22.115,0,0,0,3.35449-7.585C270.50244,328.45361,273.16846,335.89355,272.666,343.3125Zm32.27441-31.49316c-1.33228,13.82531-8.10724,27.44213-17.92749,37.46453a47.071,47.071,0,0,0,.6189-4.9577c1.19873-17.70019-9.07227-35.07226-26.8042-45.33642a7.50032,7.50032,0,0,0-10.98633,8.48974c1.21289,4.38721,2.17236,10.31592-.146,13.64551-.78955,1.13379-1.58545,1.56543-3.98193,2.7583a38.5625,38.5625,0,0,0-10.53467,7.17627c-9.52148,9.19043-11.16553,17.25928-10.86767,22.40967a20.3141,20.3141,0,0,0,.24963,2.13928,42.95621,42.95621,0,0,1-14.75745-18.37268c-6.19043-15.1543-.11474-31.54541-.05371-31.70557,2.519-6.55566,6.03223-10.4414,10.10059-14.94043,4.64209-5.13476,9.90332-10.9541,13.37011-20.85791a55.43983,55.43983,0,0,0,2.17774-8.19433,69.19468,69.19468,0,0,1,3.29053,7.25049,41.60925,41.60925,0,0,1,1.71093,5.63916,15.9279,15.9279,0,0,1,.21289,1.981,26.52878,26.52878,0,0,0,.58008,4.35645c1.49024,6.29053,6.21143,7.499,7.623,7.71973,6.50391,1.01171,11.08008-4.979,14.69629-10.97852a41.85042,41.85042,0,0,0,6.09863-18.8208,44.03626,44.03626,0,0,0-1.17724-13.59815C291.36523,255.022,307.58984,284.33252,304.94043,311.81934Zm35.06006-196.32892V45H346a22.5,22.5,0,0,0,0-45H166a22.5,22.5,0,0,0,0,45h5.99951v70.49042A67.58631,67.58631,0,0,0,112.5,182.5v213A67.47555,67.47555,0,0,0,142,451.25269V474.5A37.54227,37.54227,0,0,0,179.5,512h153A37.54227,37.54227,0,0,0,370,474.5V451.25269A67.47555,67.47555,0,0,0,399.5,395.5v-213A67.58631,67.58631,0,0,0,340.00049,115.49042ZM166,30a7.5,7.5,0,0,1,0-15H346a7.5,7.5,0,0,1,0,15ZM325.00049,45v70h-18.001V45Zm-50.1836,33.92236H237.18311a7.5,7.5,0,0,0,0,15H248.5V115H220.00049V45h71.999v70H263.5V93.92236h11.31689a7.5,7.5,0,0,0,0-15ZM205.00049,45v70h-18.001V45ZM355,474.5A22.52523,22.52523,0,0,1,332.5,497h-153A22.52523,22.52523,0,0,1,157,474.5V458.96021A67.18308,67.18308,0,0,0,180,463H332a67.18308,67.18308,0,0,0,23-4.03979Zm29.5-79A52.55929,52.55929,0,0,1,332,448H180a52.55929,52.55929,0,0,1-52.5-52.5v-213A52.55929,52.55929,0,0,1,180,130H332a52.55929,52.55929,0,0,1,52.5,52.5Z" fill="#ffffff" class="color000 svgShape"></path></svg></g></svg>