<?xml version="1.0" standalone="no"?><svg xmlns="http://www.w3.org/2000/svg" viewBox="0 0 1440 320"><path fill="#1e15c5e1" fill-opacity="1" d="M0,160L34.3,186.7C68.6,213,137,267,206,277.3C274.3,288,343,256,411,229.3C480,203,549,181,617,192C685.7,203,754,245,823,229.3C891.4,213,960,139,1029,138.7C1097.1,139,1166,213,1234,240C1302.9,267,1371,245,1406,234.7L1440,224L1440,0L1405.7,0C1371.4,0,1303,0,1234,0C1165.7,0,1097,0,1029,0C960,0,891,0,823,0C754.3,0,686,0,617,0C548.6,0,480,0,411,0C342.9,0,274,0,206,0C137.1,0,69,0,34,0L0,0Z"></path></svg>